<?xml version="1.0" encoding="UTF-8"?><svg id="Layer_2" xmlns="http://www.w3.org/2000/svg" viewBox="0 0 68.47 68.47"><defs><style>.cls-1{fill:#b0e3eb;}.cls-1,.cls-2,.cls-3,.cls-4{fill-rule:evenodd;}.cls-2{fill:#c8f3fa;}.cls-3{fill:#00b2c8;}.cls-4{fill:#0094a8;}</style></defs><g id="Layer_1-2"><g><path class="cls-2" d="M5.53,36.11L36.11,5.53c7.38-7.38,19.45-7.38,26.83,0h0c7.38,7.38,7.38,19.45,0,26.83l-30.57,30.57c-7.38,7.38-19.45,7.38-26.83,0h0c-7.38-7.38-7.38-19.45,0-26.83Z"/><path class="cls-1" d="M62.93,5.53c7.38,7.38,7.38,19.45,0,26.83l-30.57,30.57c-7.38,7.38-19.45,7.38-26.83,0L62.93,5.53Z"/><path class="cls-3" d="M20.82,20.82l15.29-15.29c7.38-7.38,19.45-7.38,26.83,0h0c7.38,7.38,7.38,19.45,0,26.83l-15.29,15.29L20.82,20.82Z"/><path class="cls-4" d="M62.94,5.53c7.38,7.38,7.38,19.45,0,26.83l-15.29,15.29-13.41-13.41L62.94,5.53Z"/></g></g></svg>